<?xml version="1.0" standalone="no"?>
<!DOCTYPE svg PUBLIC "-//W3C//DTD SVG 20010904//EN"
 "http://www.w3.org/TR/2001/REC-SVG-20010904/DTD/svg10.dtd">
<svg version="1.0" xmlns="http://www.w3.org/2000/svg"
 width="512.000000pt" height="512.000000pt" viewBox="0 0 512.000000 512.000000"
 preserveAspectRatio="xMidYMid meet">

<g transform="translate(0.000000,512.000000) scale(0.100000,-0.100000)"
fill="#000000" stroke="none">
<path d="M1683 4845 c-87 -61 -111 -351 -178 -2115 -18 -466 -40 -850 -60
-1045 -8 -77 -15 -147 -16 -155 0 -8 -4 -2 -9 13 -16 52 -40 322 -65 727 -44
700 -68 899 -126 1011 -25 50 -54 69 -105 69 -31 0 -51 -7 -74 -26 -72 -61
-106 -186 -155 -580 -37 -300 -67 -493 -85 -539 -13 -34 -28 -24 -70 50 -38
66 -97 120 -147 134 -21 6 -111 11 -201 11 -160 0 -163 0 -187 -25 -32 -31
-32 -69 0 -100 23 -24 28 -25 169 -25 80 0 156 -4 170 -10 15 -5 38 -30 54
-57 87 -152 219 -205 299 -120 61 63 86 167 133 552 41 336 75 544 87 532 18
-19 52 -353 78 -772 52 -852 87 -1059 185 -1110 37 -19 80 -19 108 1 82 57
118 309 157 1094 20 416 23 497 40 940 20 536 45 1000 54 1030 15 48 41 -498
81 -1700 56 -1680 87 -2146 151 -2271 20 -40 35 -49 83 -49 55 0 86 45 109
160 39 193 59 481 97 1425 33 817 80 1659 94 1672 9 9 37 -399 66 -937 52
-977 85 -1237 167 -1322 22 -23 35 -28 74 -28 138 0 172 138 219 900 27 441
47 646 76 793 20 99 48 -78 79 -503 30 -415 63 -552 150 -628 70 -62 186 -35
244 57 39 62 57 127 87 315 36 237 45 263 87 252 20 -5 35 -27 75 -109 54
-113 88 -150 155 -168 48 -13 126 -5 171 18 17 8 62 45 99 81 63 60 70 64 105
59 20 -3 63 -21 95 -40 80 -48 153 -60 363 -55 152 3 174 5 193 22 27 24 28
76 2 107 -19 24 -23 24 -228 29 l-208 5 -78 43 c-70 38 -85 42 -145 42 -82 0
-114 -15 -191 -94 -60 -59 -112 -83 -145 -64 -9 5 -36 51 -59 101 -52 110
-100 158 -174 176 -105 25 -184 -25 -222 -141 -11 -35 -34 -145 -50 -246 -29
-172 -58 -272 -79 -272 -16 0 -41 76 -57 173 -8 50 -24 207 -35 347 -40 498
-67 627 -143 698 -54 51 -147 35 -188 -31 -61 -100 -87 -281 -129 -902 -33
-483 -57 -718 -70 -694 -22 40 -59 523 -95 1264 -41 820 -71 1058 -142 1129
-35 35 -100 36 -131 3 -78 -82 -111 -421 -162 -1617 -35 -844 -69 -1494 -76
-1487 -11 11 -43 702 -79 1732 -63 1773 -93 2180 -171 2266 -21 23 -90 26
-121 4z"/>
</g>
</svg>
